<svg xmlns="http://www.w3.org/2000/svg" viewBox="0 0 32 32" fill="none">
  <defs>
    <linearGradient id="favGrad" x1="2" y1="2" x2="30" y2="30" gradientUnits="userSpaceOnUse">
      <stop offset="0%" stop-color="#22D3EE"/>
      <stop offset="50%" stop-color="#2563EB"/>
      <stop offset="100%" stop-color="#10B981"/>
    </linearGradient>
    <linearGradient id="favShine" x1="4" y1="4" x2="24" y2="24" gradientUnits="userSpaceOnUse">
      <stop offset="0%" stop-color="#FFFFFF" stop-opacity="0.35"/>
      <stop offset="100%" stop-color="#FFFFFF" stop-opacity="0"/>
    </linearGradient>
  </defs>
  <rect width="32" height="32" rx="9" fill="url(#favGrad)"/>
  <rect width="32" height="32" rx="9" fill="url(#favShine)"/>
  <rect x="1" y="1" width="30" height="30" rx="8" stroke="#FFFFFF" stroke-opacity="0.22"/>
  <path d="M9.5 8.5H14.2C17.1 8.5 19.2 10.2 19.2 12.6C19.2 14.2 18.1 15.4 16.5 15.9C18.3 16.3 19.7 17.8 19.7 19.8C19.7 22.4 17.2 24 14.1 24H9.5V8.5Z" fill="#FFFFFF"/>
  <path d="M12.6 11H13.6C15 11 16 11.8 16 13.1C16 14.4 15 15.2 13.6 15.2H12.6V11Z" fill="#2563EB"/>
  <path d="M12.6 17.4H13.8C15.3 17.4 16.3 18.2 16.3 19.5C16.3 20.8 15.3 21.6 13.8 21.6H12.6V17.4Z" fill="#10B981"/>
  <circle cx="22" cy="11.5" r="1.4" fill="#FDE68A"/>
  <circle cx="23.5" cy="20" r="1" fill="#67E8F9"/>
</svg>