<svg xmlns="http://www.w3.org/2000/svg" viewBox="0 0 200 48" fill="none" role="img" aria-label="Biotrons">
  <defs>
    <linearGradient id="bioGrad" x1="0%" y1="0%" x2="100%" y2="100%">
      <stop offset="0%" stop-color="#10B981"/>
      <stop offset="50%" stop-color="#2563EB"/>
      <stop offset="100%" stop-color="#FF6B00"/>
    </linearGradient>
    <linearGradient id="helixGrad" x1="0%" y1="0%" x2="0%" y2="100%">
      <stop offset="0%" stop-color="#34D399"/>
      <stop offset="100%" stop-color="#2563EB"/>
    </linearGradient>
  </defs>
  <rect x="0" y="4" width="40" height="40" rx="10" fill="url(#bioGrad)"/>
  <path d="M14 14c0-2 1.5-3 4-3h6c4 0 7 2.5 7 6.5S28 24 24 24h-4v10h-6V14z" fill="#fff"/>
  <path d="M20 17h4c2 0 3.5 1 3.5 3s-1.5 3-3.5 3h-4V17z" fill="url(#helixGrad)" opacity="0.9"/>
  <circle cx="32" cy="12" r="2" fill="#34D399"/>
  <circle cx="35" cy="18" r="1.5" fill="#60A5FA"/>
  <path d="M31 28c2-3 5-4 8-3" stroke="#34D399" stroke-width="1.5" stroke-linecap="round" fill="none" opacity="0.8"/>
  <text x="50" y="22" font-family="Inter,Segoe UI,sans-serif" font-size="18" font-weight="800" fill="#0F172A">Biotrons</text>
  <text x="50" y="36" font-family="Inter,Segoe UI,sans-serif" font-size="9" font-weight="500" fill="#64748B" letter-spacing="0.08em">CAREER INSTITUTE</text>
</svg>