<svg xmlns="http://www.w3.org/2000/svg" viewBox="0 0 260 56" fill="none" role="img" aria-label="Biotrons Career Institute">
  <defs>
    <linearGradient id="iconGradW" x1="4" y1="4" x2="52" y2="52" gradientUnits="userSpaceOnUse">
      <stop offset="0%" stop-color="#67E8F9"/>
      <stop offset="45%" stop-color="#60A5FA"/>
      <stop offset="100%" stop-color="#34D399"/>
    </linearGradient>
    <linearGradient id="iconShineW" x1="8" y1="8" x2="44" y2="44" gradientUnits="userSpaceOnUse">
      <stop offset="0%" stop-color="#FFFFFF" stop-opacity="0.4"/>
      <stop offset="100%" stop-color="#FFFFFF" stop-opacity="0"/>
    </linearGradient>
    <linearGradient id="wordGradW" x1="64" y1="18" x2="220" y2="34" gradientUnits="userSpaceOnUse">
      <stop offset="0%" stop-color="#FFFFFF"/>
      <stop offset="55%" stop-color="#E0F2FE"/>
      <stop offset="100%" stop-color="#D1FAE5"/>
    </linearGradient>
    <linearGradient id="accentGradW" x1="64" y1="48" x2="132" y2="48" gradientUnits="userSpaceOnUse">
      <stop offset="0%" stop-color="#67E8F9"/>
      <stop offset="50%" stop-color="#93C5FD"/>
      <stop offset="100%" stop-color="#FDBA74"/>
    </linearGradient>
    <filter id="softGlowW" x="-20%" y="-20%" width="140%" height="140%">
      <feGaussianBlur stdDeviation="2.2" result="blur"/>
      <feMerge>
        <feMergeNode in="blur"/>
        <feMergeNode in="SourceGraphic"/>
      </feMerge>
    </filter>
  </defs>

  <circle cx="28" cy="28" r="24" fill="url(#iconGradW)" opacity="0.18"/>
  <rect x="6" y="6" width="44" height="44" rx="14" fill="url(#iconGradW)" filter="url(#softGlowW)"/>
  <rect x="6" y="6" width="44" height="44" rx="14" fill="url(#iconShineW)"/>
  <rect x="6.75" y="6.75" width="42.5" height="42.5" rx="13.25" stroke="#FFFFFF" stroke-opacity="0.3"/>

  <path d="M17.5 16.5H25.5C31.2 16.5 35.5 19.8 35.5 24.6C35.5 27.8 33.4 30.3 30.4 31.4C34.1 32.2 36.8 35.2 36.8 39.2C36.8 44.5 32.1 47.5 25.8 47.5H17.5V16.5Z" fill="#FFFFFF"/>
  <path d="M23.8 21.2H25.4C28.1 21.2 29.9 22.7 29.9 24.9C29.9 27.1 28.1 28.6 25.4 28.6H23.8V21.2Z" fill="#1E3A8A"/>
  <path d="M23.8 33.4H25.9C28.8 33.4 30.8 35 30.8 37.5C30.8 40 28.8 41.6 25.9 41.6H23.8V33.4Z" fill="#065F46"/>

  <path d="M37.5 18.5C40.8 20.2 41.2 23.8 38.8 26.1C41.4 27.8 41.6 31.2 39 33.2" stroke="#D1FAE5" stroke-width="1.7" stroke-linecap="round"/>
  <path d="M39.8 20.2C37.4 21.6 37.4 24.4 39.8 25.8M39.8 25.8C37.4 27.2 37.4 30 39.8 31.4" stroke="#BFDBFE" stroke-width="1.4" stroke-linecap="round"/>

  <circle cx="43.5" cy="19" r="2.2" fill="#FDE68A"/>
  <circle cx="45.5" cy="33.5" r="1.6" fill="#BAE6FD"/>
  <circle cx="41" cy="38.5" r="1.2" fill="#FFFFFF"/>

  <text x="64" y="31" font-family="Inter, Segoe UI, system-ui, sans-serif" font-size="23" font-weight="800" fill="url(#wordGradW)" letter-spacing="-0.6px">Biotrons</text>
  <text x="64" y="44.5" font-family="Inter, Segoe UI, system-ui, sans-serif" font-size="8.5" font-weight="600" fill="#94A3B8" letter-spacing="0.24em">CAREER INSTITUTE</text>
  <rect x="64" y="48.5" width="54" height="2.8" rx="1.4" fill="url(#accentGradW)"/>
</svg>